<svg width="60" height="61" viewBox="0 0 60 61" fill="none" xmlns="http://www.w3.org/2000/svg">
<path d="M30 55.6667C43.8075 55.6667 55 44.4742 55 30.6667C55 16.8592 43.8075 5.66669 30 5.66669C16.1925 5.66669 5 16.8592 5 30.6667C5 44.4742 16.1925 55.6667 30 55.6667Z" fill="#E4E4E4" stroke="#E4E4E4" stroke-linecap="round" stroke-linejoin="round"/>
<path d="M30.3004 32.6166C30.1012 32.5916 29.8996 32.5916 29.7004 32.6166C27.5803 32.5453 25.5709 31.6526 24.0968 30.1272C22.6226 28.6017 21.7992 26.563 21.8004 24.4417C21.8004 19.9167 25.4504 16.2417 30.0004 16.2417C32.149 16.2379 34.213 17.0787 35.7475 18.5827C37.2819 20.0866 38.1639 22.1334 38.2032 24.2816C38.2426 26.4299 37.4362 28.5075 35.9578 30.0667C34.4795 31.6259 32.4477 32.5417 30.3004 32.6166ZM46.8504 49.1166C42.2561 53.3393 36.2405 55.6777 30.0004 55.6666C23.5004 55.6666 17.6004 53.1916 13.1504 49.1166C13.4004 46.7666 14.9004 44.4666 17.5754 42.6666C24.4254 38.1166 35.6254 38.1166 42.4254 42.6666C45.1004 44.4666 46.6004 46.7666 46.8504 49.1166Z" fill="white"/>
</svg>
